<svg viewBox="-4.8 -4.8 57.60 57.60" xmlns="http://www.w3.org/2000/svg" fill="#000000" stroke="#000000"><g id="SVGRepo_bgCarrier" stroke-width="0" transform="translate(0,0), scale(1)"></g><g id="SVGRepo_tracerCarrier" stroke-linecap="round" stroke-linejoin="round" stroke="#CCCCCC" stroke-width="2.4"><defs><style>.a{fill:none;stroke:#ffffff;stroke-linecap:round;stroke-linejoin:round;}</style></defs><path class="a" d="M5.5,19.6V40.5a2,2,0,0,0,2,2h33a2,2,0,0,0,2-2V7.5a2,2,0,0,0-2-2H7.5a2,2,0,0,0-2,2V19.6"></path><path class="a" d="M25.7547,33.6191V14.3809h6.2982a6.461,6.461,0,0,1,0,12.922H25.7547"></path><line class="a" x1="9.5" y1="33.562" x2="15.8847" y2="14.3809"></line><line class="a" x1="22.0048" y1="33.6191" x2="15.8847" y2="14.3809"></line><line class="a" x1="19.9575" y1="27.1836" x2="11.6231" y2="27.1836"></line></g><g id="SVGRepo_iconCarrier"><defs><style>.a{fill:none;stroke:#ffffff;stroke-linecap:round;stroke-linejoin:round;}</style></defs><path class="a" d="M5.5,19.6V40.5a2,2,0,0,0,2,2h33a2,2,0,0,0,2-2V7.5a2,2,0,0,0-2-2H7.5a2,2,0,0,0-2,2V19.6"></path><path class="a" d="M25.7547,33.6191V14.3809h6.2982a6.461,6.461,0,0,1,0,12.922H25.7547"></path><line class="a" x1="9.5" y1="33.562" x2="15.8847" y2="14.3809"></line><line class="a" x1="22.0048" y1="33.6191" x2="15.8847" y2="14.3809"></line><line class="a" x1="19.9575" y1="27.1836" x2="11.6231" y2="27.1836"></line></g></svg>